<svg xmlns="http://www.w3.org/2000/svg" width="116" height="138" fill="none">
  <path fill="#212529" d="M13.75 108.903a.353.353 0 0 1-.355-.355v-5.963a.356.356 0 0 1 .606-.251.356.356 0 0 1 .104.251v5.963a.354.354 0 0 1-.355.355Z"/>
  <path fill="#212529" d="M29.332 57.969c-8.235 2.928-9.974-12.707-2.36-10.169 7.613 2.538 4.383-11.127 4.383-11.127C22.695 7.088 49.297 1.445 49.297 1.445S52.12-.295 56.023 5.1c0 0 8.288-3.568 14.056 7.08 5.768 10.649-.87 27.19 2.147 32.034 3.266 5.2 6.39-.444 8.324 4.295 1.632 3.993-6.336 8.518-8.324 8.572l-42.894.887Z"/>
  <path fill="#212529" d="M27.326 58.697c-2.076 0-3.372-1.243-4.046-2.13-1.775-2.36-2.059-6.034-.621-8.022.958-1.33 2.52-1.721 4.419-1.082 1.42.461 2.52.372 3.265-.32 2.485-2.271.728-10.08.657-10.382-2.75-9.459-2.236-17.48 1.562-23.834 5.413-9.051 15.777-11.624 16.61-11.82.445-.23 3.266-1.42 6.976 3.568 1.545-.501 3.187-.629 4.791-.373 2.645.408 6.407 2.076 9.46 7.702 3.407 6.3 2.537 14.641 1.845 21.332-.497 4.703-.905 8.767.284 10.684 1.562 2.502 3.035 2.325 4.437 2.147 1.402-.177 2.875-.337 3.922 2.219.461 1.135.266 2.378-.586 3.691-1.863 2.857-6.478 5.324-8.057 5.36l-42.841.887a6.282 6.282 0 0 1-2.077.373ZM25.41 47.87a2.502 2.502 0 0 0-2.166 1.082c-1.242 1.74-.958 5.094.604 7.188.763.994 2.467 2.538 5.377 1.49h.107l42.894-.886c1.243-.036 5.662-2.237 7.472-5.023.728-1.118.905-2.13.532-3.053-.834-2.04-1.828-1.934-3.177-1.774-1.348.16-3.336.39-5.128-2.485-1.331-2.112-.888-6.282-.39-11.127.691-6.602 1.543-14.819-1.758-20.924-2.307-4.242-5.395-6.78-8.944-7.347-2.662-.408-4.65.426-4.668.443l-.266.107-.16-.23C52.066.255 49.51 1.745 49.492 1.763l-.053.036h-.053c-.107.035-10.773 2.395-16.221 11.517-3.691 6.176-4.188 14.02-1.473 23.285.089.337 1.97 8.483-.87 11.074-.94.87-2.289 1.011-3.975.461a4.42 4.42 0 0 0-1.438-.266Z"/>
  <path fill="#212529" d="M66.317 21.676h-.107c-9.707-2.768-16.7-11.11-16.77-11.198a.359.359 0 1 1 .55-.461c.07.088 6.92 8.27 16.415 10.967a.353.353 0 0 1 .249.444.338.338 0 0 1-.337.248Z"/>
  <path fill="#212529" d="M62.306 32.644h-.089a.355.355 0 0 1-.32-.39.336.336 0 0 1 .373-.32c.125 0 3.089.178 3.62-4.667.303-2.662-.443-3.461-1.153-4.224-.71-.763-1.384-1.473-1.189-3.479a.357.357 0 1 1 .71.071c-.16 1.686.373 2.254.994 2.929.621.674 1.668 1.792 1.349 4.791-.568 5.04-3.71 5.289-4.295 5.289Z"/>
  <path fill="#212529" d="M58.046 22.12h-.053l-4.028-.355a.462.462 0 0 1-.361-.662.425.425 0 0 1 .432-.225l4.046.355a.444.444 0 0 1 .408.479.48.48 0 0 1-.444.408Z"/>
  <path fill="#ADB5BD" d="M73.948 108.548c-1.047-1.828-1.633-2.573-1.402-4.667.337-3.213.851-8.341 1.1-13.169 2.431 4.828 8.252 13.044 18.067 7.898 2.005-1.047-.231-33.116-27.242-43.729l-2.964 4.206a11.609 11.609 0 0 1-1.668 2.059C48.587 71.794 39.607 54.88 39.607 54.88c-27.561 8.252-25.112 31.2-27.632 43.729-1.313 6.548 6.921 3.833 14.854 3.265 3.425-.23 4.047-5.608 4.1-9.832a.23.23 0 1 1 .461-.017l.94 9.477a15.034 15.034 0 0 1-1.454 8.057"/>
  <path fill="#F8F9FA" d="M39.607 54.881s5.182 2.52 7.667-12.388l7.79-.514s.48 14.393 9.407 12.902c0 0-11.252 22.645-24.864 0Z"/>
  <path fill="#F8F9FA" d="M70.611 20.824a.354.354 0 0 1-.355-.32c-1.1-10.63-9.973-13.345-10.062-13.363a.355.355 0 0 1-.23-.443.338.338 0 0 1 .425-.249c.107.036 2.396.728 4.863 2.787 2.467 2.058 5.11 5.395 5.714 11.198a.356.356 0 0 1-.32.39h-.035Z"/>
  <path fill="#F8F9FA" d="M70.753 28.562a.355.355 0 0 1-.355-.355v-4.88a.355.355 0 1 1 .71 0v4.88a.355.355 0 0 1-.355.355Z"/>
  <path fill="#F8F9FA" d="M33.2 18.872h-.089a.373.373 0 0 1-.248-.444c1.739-5.98 6.158-9.228 6.336-9.37a.355.355 0 0 1 .496.089.353.353 0 0 1-.07.497c-.054.017-4.42 3.247-6.088 8.98a.319.319 0 0 1-.337.248Z"/>
  <path fill="#F8F9FA" d="M32.384 24.746a.372.372 0 0 1-.355-.284 6.585 6.585 0 0 1 0-2.999.357.357 0 0 1 .288-.27.355.355 0 0 1 .138.004.338.338 0 0 1 .266.426 6.211 6.211 0 0 0 0 2.68.338.338 0 0 1-.266.426l-.07.017Z"/>
  <path fill="#F8F9FA" d="M101.811 75.255c5.004 34.518-8.66 36.825-17.197 30.205-4.17-3.23-7.046-8.163-7.791-9.956a.586.586 0 0 1 .355-.799c1.739-.585 6.797-2.466 8.696-5.11"/>
  <path fill="#212529" d="M92.245 108.779c-2.538 0-5.271-1.029-7.862-3.035-4.42-3.443-7.259-8.572-7.898-10.098a1.03 1.03 0 0 1 .018-.763.975.975 0 0 1 .55-.515c1.544-.514 6.673-2.396 8.519-4.987a.355.355 0 0 1 .497-.07.355.355 0 0 1 .088.496c-1.916 2.68-6.85 4.561-8.873 5.236a.355.355 0 0 0-.142.142.302.302 0 0 0 0 .177c.78 1.864 3.691 6.726 7.684 9.814 3.994 3.088 8.146 3.709 11.359 1.846 3.212-1.864 8.607-8.75 5.27-31.732a.353.353 0 0 1 .006-.137.342.342 0 0 1 .296-.253.35.35 0 0 1 .268.065.353.353 0 0 1 .14.236c1.349 9.335 1.438 16.931.231 22.557-1.047 4.898-3.017 8.217-5.856 9.885a8.715 8.715 0 0 1-4.295 1.136Z"/>
  <path fill="#212529" d="M115.547 108.424H.475v.71h115.072v-.71Z"/>
  <path fill="#F8F9FA" d="M101.171 76.373s5.733-12.228 0-12.618c0 0 1.899-5.822-3.265-5.076 0 0-.053-8.235-8.164-6.194 0 0-.816 4.508-4.88 1.9 0 0-3.62-5.502-4.455-.267-.16.958 4.472 4.738 5.289 6.247 2.165 4.029 3.674 11.73 3.159 19.77-.213 3.443-.497 7.809-.426 11.465l12.742-15.227Z"/>
  <path fill="#F8F9FA" d="M90.896 52.024c2.893-1.26 1.438 5.785-1.597 8.075a1.33 1.33 0 0 1-1.118.23c-.728-.195-1.934-1.58-1.171-3.709"/>
  <path fill="#212529" d="M88.5 60.72a1.504 1.504 0 0 1-.408-.053c-.479-.125-.993-.586-1.313-1.19-.32-.603-.497-1.898-.106-2.963a.354.354 0 0 1 .6-.203.354.354 0 0 1 .056.434c-.39 1.118-.177 1.934.071 2.413.249.48.621.763.87.816a.976.976 0 0 0 .816-.16c2.272-1.72 3.55-6.122 2.822-7.346-.071-.107-.23-.39-.87-.125a.356.356 0 0 1-.284-.639c1.1-.479 1.615.125 1.775.409.94 1.614-.55 6.406-3.017 8.27a1.65 1.65 0 0 1-1.011.337Z"/>
  <path fill="#F8F9FA" d="M95.05 55.378c4.258-1.544.638 8.217-3.302 9.282 0 0-1.988.213-1.934-2.094"/>
  <path fill="#212529" d="M91.624 65.014a2.183 2.183 0 0 1-1.491-.532c-.462-.426-.692-1.082-.675-1.917a.355.355 0 0 1 .355-.354h.018a.373.373 0 0 1 .337.372c-.018.621.142 1.083.444 1.367.297.249.678.376 1.065.355 2.058-.586 4.152-3.834 4.774-6.425.248-1.047.195-1.863-.142-2.165-.337-.302-.781-.142-1.154 0a.357.357 0 0 1-.23-.674c.798-.284 1.42-.231 1.863.142.444.372.674 1.49.355 2.857-.586 2.485-2.751 6.265-5.307 6.957h-.212v.017Z"/>
  <path fill="#F8F9FA" d="M99.006 59.548c4.029-.78 1.242 8.785-4.774 9.229 0 0-2.662.089-2.36-2.343"/>
  <path fill="#212529" d="M94.215 69.132c-.266 0-1.473-.053-2.183-.834-.444-.48-.603-1.118-.514-1.9a.354.354 0 0 1 .39-.319.39.39 0 0 1 .32.409c-.072.567.035 1.011.319 1.33.568.622 1.668.604 1.668.604 2.857-.213 4.88-2.627 5.75-4.632.657-1.526.763-2.964.266-3.603-.248-.301-.639-.39-1.171-.284a.355.355 0 0 1-.35-.553.373.373 0 0 1 .226-.157c.994-.195 1.561.196 1.845.55.693.852.622 2.52-.159 4.33-.994 2.29-3.195 4.828-6.371 5.059h-.036Z"/>
  <path fill="#F8F9FA" d="M89.228 53.94 80.212 41.98l-3.638 3.762L86.761 56.39a.692.692 0 0 0 .657.178c.479-.142 1.313-.568 1.899-1.97a.673.673 0 0 0-.09-.657Z"/>
  <path fill="#212529" d="M87.24 56.94a.976.976 0 0 1-.728-.32L76.094 45.741l4.153-4.312 9.264 12.299a1.011 1.011 0 0 1 .142.993c-.656 1.58-1.632 2.041-2.147 2.183a.693.693 0 0 1-.266.036ZM77.07 45.74l9.957 10.4a.338.338 0 0 0 .284.089c.408-.107 1.135-.48 1.686-1.775a.303.303 0 0 0-.054-.301L80.176 42.51l-3.105 3.23Z"/>
  <path fill="#F8F9FA" d="M37.14 24.09c-1.898 1.224-2.502 1.952-2.253 4.206.16 1.313 1.189 3.603 2.254 4.383 1.064.781 1.845.764 2.271 1.172 1.012.976 1.065 2.023 1.19 3.088.319 2.662 2.786 4.33 5.093 5.714 3.673 2.201 8.802 1.598 11.872-1.384 1.74-1.686 3.248-3.745 3.887-6.087.78-2.893 3.691-5.111 3.762-5.218.781-1.366 1.136-2.449.959-4.028-.231-2.06-3.142-3.834-4.81-5.058-3.869-2.875-6.832-5.892-10.453-9.46a1.296 1.296 0 0 0-1.952.178c-2.573 3.532-2.822 6.407-9.548 10.311"/>
  <path fill="#212529" d="M50.54 44.25h-.107c-5.68-.053-8.466-3.496-9.815-6.37a17.784 17.784 0 0 1-1.561-6.265.338.338 0 0 1 .337-.355h.018a.339.339 0 0 1 .355.337 17.447 17.447 0 0 0 1.508 5.998c1.828 3.905 4.916 5.91 9.158 5.946h.124c4.508 0 7.79-2.343 9.743-6.975 1.473-3.514 1.58-7.081 1.597-7.117a.356.356 0 0 1 .696-.14c.01.053.01.107-.004.158a22.523 22.523 0 0 1-1.632 7.383c-2.041 4.845-5.644 7.4-10.418 7.4Z"/>
  <path fill="#212529" d="M39.181 33.85a4.312 4.312 0 0 1-2.626-.904c-1.1-.888-1.775-2.307-1.988-4.224-.337-3.035.55-3.71 1.349-4.313.799-.603 1.065-.816.905-2.466a.373.373 0 0 1 .32-.39.355.355 0 0 1 .39.319c.195 2.04-.55 2.608-1.19 3.105-.638.497-1.348 1.03-1.064 3.656.532 4.845 3.958 4.526 4.1 4.508a.335.335 0 0 1 .35.17.355.355 0 0 1-.28.522l-.266.018Z"/>
  <path fill="#212529" d="M44.346 28.42c.431 0 .78-.532.78-1.189s-.349-1.189-.78-1.189c-.431 0-.781.532-.781 1.189s.35 1.19.78 1.19Z"/>
  <path fill="#212529" d="M42.376 24.835a.461.461 0 0 1-.44-.513.444.444 0 0 1 .333-.374l3.922-1.03a.427.427 0 0 1 .533.302.443.443 0 0 1-.302.55L42.5 24.817l-.124.018Z"/>
  <path fill="#212529" d="M48.783 33.85h-.018c-.781-.07-1.278-.336-1.455-.816-.39-1.011.94-2.449 1.224-2.715a.355.355 0 0 1 .497-.018.373.373 0 0 1 0 .515c-.515.533-1.224 1.544-1.047 1.97.177.426.55.337.816.355a.338.338 0 0 1 .338.373.373.373 0 0 1-.355.337Z"/>
  <path fill="#F8F9FA" d="M69.99 47.658c10.184 0 18.439-8.256 18.439-18.44 0-10.183-8.255-18.439-18.44-18.439-10.183 0-18.438 8.256-18.438 18.44 0 10.183 8.255 18.439 18.439 18.439Z"/>
  <path fill="#212529" d="M69.99 48.03c-10.364 0-18.794-8.447-18.794-18.811a18.795 18.795 0 0 1 37.588 0c0 10.364-8.43 18.812-18.794 18.812Zm0-36.896A18.102 18.102 0 0 0 51.906 29.22c0 9.974 8.11 18.102 18.084 18.102s18.084-8.128 18.084-18.102A18.102 18.102 0 0 0 69.99 11.134Z"/>
  <path fill="#F8F9FA" d="M69.99 44.481c8.243 0 14.925-6.682 14.925-14.925S78.233 14.631 69.99 14.631s-14.925 6.682-14.925 14.925 6.682 14.925 14.925 14.925Z"/>
  <path fill="#212529" d="M69.99 44.836a15.28 15.28 0 1 1 15.28-15.28 15.298 15.298 0 0 1-15.28 15.28Zm0-29.85a14.57 14.57 0 1 0 14.57 14.57 14.588 14.588 0 0 0-14.57-14.57Z"/>
  <path fill="#212529" d="M58.525 28.456c.872 0 1.58-1.08 1.58-2.414 0-1.333-.708-2.414-1.58-2.414-.872 0-1.58 1.081-1.58 2.414 0 1.333.708 2.414 1.58 2.414Z"/>
  <path fill="#F8F9FA" d="M63.14 42.83s10.293-11.89 3.495-27.827L63.14 42.831Z"/>
  <path fill="#212529" d="M63.14 43.186a.355.355 0 0 1-.266-.586c.017-.035 2.555-3 4.24-7.862 1.545-4.454 2.663-11.482-.798-19.593a.355.355 0 0 1 .178-.461.353.353 0 0 1 .479.177c3.55 8.341 2.396 15.564.799 20.143-1.722 4.97-4.26 7.933-4.366 8.057a.372.372 0 0 1-.266.125Z"/>
  <path fill="#F8F9FA" d="M26.829 101.875s.266 5.413 0 6.904v-6.904Z"/>
  <path fill="#212529" d="M26.83 109.134h-.054a.37.37 0 0 1-.284-.426c.249-1.438 0-6.762-.017-6.815a.334.334 0 0 1 .092-.25.34.34 0 0 1 .245-.105.332.332 0 0 1 .262.085.336.336 0 0 1 .11.252c.018.213.267 5.449 0 6.957a.352.352 0 0 1-.12.217.352.352 0 0 1-.234.085Z"/>
  <path fill="#212529" d="M47.522 40.453c-.692 0-1.26-.692-1.26-1.527 0-.834.568-1.544 1.26-1.544.692 0 1.26.693 1.26 1.544 0 .852-.568 1.527-1.26 1.527Zm0-2.36c-.301 0-.55.39-.55.833 0 .444.248.817.55.817.302 0 .55-.373.55-.817 0-.443-.248-.834-.55-.834Z"/>
  <path fill="#212529" d="M96.362 72.965a6.882 6.882 0 0 1-.852-.07c-1.544-.231-2.52-.657-2.91-1.26a.923.923 0 0 1-.142-.764l.674.195a.318.318 0 0 0 .089.231c.177.249.71.675 2.378.905l.745.053c3.142 0 5.591-2.857 6.194-4.472a2.169 2.169 0 0 0-.514-2.307.333.333 0 0 1-.018-.497.353.353 0 0 1 .497-.035c.053.053 1.384 1.277.692 3.088-.692 1.81-3.319 4.933-6.833 4.933Z"/>
  <path fill="#212529" d="M101.42 75.663a.817.817 0 0 1-.408-.089.358.358 0 0 1-.18-.206.35.35 0 0 1 .228-.45.342.342 0 0 1 .272.035.99.99 0 0 0 .514-.089c.799-.337 1.722-1.171 1.81-1.437a.304.304 0 0 0-.053-.302l-2.129-3.106a.333.333 0 0 1-.008-.384.35.35 0 0 1 .096-.095.362.362 0 0 1 .267-.06.354.354 0 0 1 .23.149l2.13 3.088c.092.136.153.291.178.454.024.163.012.329-.036.486-.195.55-1.331 1.509-2.219 1.864a1.792 1.792 0 0 1-.692.142Z"/>
  <path fill="#212529" d="M101.172 75.61a.372.372 0 0 1-.284-.142l-2.183-3.177a.356.356 0 1 1 .585-.408l2.183 3.176a.346.346 0 0 1 .052.271.358.358 0 0 1-.158.226.354.354 0 0 1-.195.054Z"/>
  <path fill="#F8F9FA" d="M70.097 117.422c4.273 0 7.737-3.425 7.737-7.649 0-4.225-3.464-7.649-7.737-7.649-4.274 0-7.738 3.424-7.738 7.649 0 4.224 3.464 7.649 7.738 7.649Z"/>
  <path fill="#212529" d="M70.185 117.777h-.567l-3.266-.391 2.627-.319v-.089l.301.035a7.258 7.258 0 0 0 6.354-7.24c0-3.798-2.485-6.762-6.034-7.188l-2.91-.337 2.91-.355.142-.053c.136-.051.28-.075.426-.071a7.994 7.994 0 0 1 5.989 2.674 7.998 7.998 0 0 1 1.98 6.253 8.04 8.04 0 0 1-7.952 7.081Zm2.574-14.819c2.2 1.366 3.585 3.851 3.585 6.815a8.037 8.037 0 0 1-4.047 6.992 7.484 7.484 0 0 0 2.432-1.296 7.185 7.185 0 0 0 2.697-4.862 7.24 7.24 0 0 0-1.81-5.697 7.473 7.473 0 0 0-2.857-1.952Z"/>
  <path fill="#212529" d="M69.724 117.741h-.426c-4.029 0-7.294-3.585-7.294-7.968 0-4.384 3.212-8.004 7.17-8.004.29 0 .581.018.87.053 3.584.497 6.3 3.904 6.3 7.951 0 4.046-2.716 7.471-6.3 7.95l-.32.018Zm-.55-15.262c-3.567 0-6.46 3.283-6.46 7.294 0 4.011 2.964 7.258 6.584 7.258h.266c.125.012.25.006.373-.017 3.248-.426 5.697-3.55 5.697-7.241 0-3.692-2.45-6.797-5.697-7.241a5.565 5.565 0 0 0-.763-.053Z"/>
  <path fill="#212529" d="M69.174 115.647c-2.911 0-5.271-2.627-5.271-5.874 0-3.248 2.36-5.857 5.27-5.857l.64.036c2.626.355 4.614 2.857 4.614 5.821 0 2.963-1.988 5.466-4.615 5.821a3.907 3.907 0 0 1-.638.053Zm0-11.021c-2.52 0-4.562 2.307-4.562 5.147 0 2.839 2.041 5.164 4.562 5.164l.532-.035c2.29-.32 4.01-2.521 4.01-5.129 0-2.609-1.72-4.81-4.01-5.111a2.637 2.637 0 0 0-.532-.036Z"/>
  <path fill="#212529" d="M76.592 106.17h-1.597a.353.353 0 0 1-.355-.355.356.356 0 0 1 .355-.355h1.597a.357.357 0 0 1 .355.355.354.354 0 0 1-.355.355Z"/>
  <path fill="#212529" d="M77.213 107.98h-1.508a.353.353 0 0 1-.355-.355.356.356 0 0 1 .355-.355h1.508a.358.358 0 0 1 .355.355.354.354 0 0 1-.355.355Z"/>
  <path fill="#212529" d="M77.817 110.429h-1.828a.353.353 0 0 1-.355-.355.356.356 0 0 1 .355-.355h1.828a.357.357 0 0 1 .355.355.352.352 0 0 1-.355.355Z"/>
  <path fill="#212529" d="M77.106 112.985h-1.615a.353.353 0 0 1-.355-.355.356.356 0 0 1 .355-.355h1.615a.357.357 0 0 1 .355.355.354.354 0 0 1-.355.355Z"/>
  <path fill="#212529" d="M75.492 115.611H73.93a.356.356 0 0 1 0-.709h1.562a.353.353 0 0 1 .355.355.356.356 0 0 1-.355.354Z"/>
  <path fill="#212529" d="M69.742 113.375a2.556 2.556 0 0 1-1.509-.461c-.852-.639-1.278-1.917-1.278-3.78.018-1.597.39-2.52 1.136-2.84 1.154-.497 2.627.834 2.786.976a.355.355 0 0 1 .018.497.327.327 0 0 1-.245.118.337.337 0 0 1-.252-.1c-.337-.302-1.402-1.1-2.023-.834-.621.266-.692.958-.71 2.183 0 1.633.32 2.715.994 3.194.674.479 1.721.302 2.413.089a.343.343 0 0 1 .382.106c.029.037.05.079.062.125a.336.336 0 0 1-.23.443 4.96 4.96 0 0 1-1.544.284Z"/>
  <path fill="#F8F9FA" d="M41.435 97.279s-16.434 2.467-15.901 5.395c.532 2.928 1.686 4.845.124 8.075-.78 1.615-2.484 3.691-2.946 6.051-.461 2.361.55 5.147 2.822 7.028 4.56 3.78 4.437 6.726 25.609 0 0 0 7.525-1.916 4.295-8.163-3.23-6.247-4.686-3.355-1.775-11.767 0 0 1.331-3.478-2.857-2.91 0 0-3.337.142-4.33-1.438-.994-1.58-1.704-3.975-5.04-2.271Z"/>
  <path fill="#212529" d="M31.035 113.446s2.77-6.69 4.845-7.276c2.077-.586 14.908-4.277 15.724-3.354.817.923-.355 7.045-2.076 7.4-1.721.355-13.523 4.047-12.707 4.97.817.922 13.044-2.308 14.198-1.615 1.153.692 4.224 4.507.852 8.536-3.372 4.029-19.096 6.886-20.48 5.732-1.385-1.153-7.17-7.578-6.709-9.53.462-1.952-.586-4.135 1.509-3.177 2.094.959 3.602.994 4.845-1.686Z"/>
  <path fill="#212529" d="M33.573 128.389c-2.165 0-4.206-.337-5.324-1.402-4.241-4.01-7.578-7.169-5.27-11.997 2.164-4.543 3.353-6.655 3.371-6.69a.34.34 0 0 1 .213-.167.337.337 0 0 1 .266.043.353.353 0 0 1 .142.479c-.017.017-1.189 2.129-3.354 6.637-2.165 4.508.94 7.223 5.129 11.181 1.42 1.349 5.27 1.579 10.542.603 7.294-1.331 15.156-4.543 16.15-6.62 1.348-2.75-.586-5.306-2.148-7.347a17.668 17.668 0 0 1-1.189-1.686c-.692-1.189-.035-3.336.604-5.43.568-1.811 1.206-3.887.497-4.384-1.385-.994-9.832.887-13.896 1.793l-2.077.443c-3.602.763-6.886 6.939-6.921 6.993a.359.359 0 0 1-.502.212.36.36 0 0 1-.184-.238.354.354 0 0 1 .065-.294c.142-.266 3.46-6.531 7.4-7.365l2.059-.444c6.495-1.455 12.955-2.768 14.464-1.686 1.118.799.461 2.929-.231 5.183-.568 1.845-1.207 3.939-.657 4.862a15.37 15.37 0 0 0 1.136 1.615c1.58 2.077 3.745 4.934 2.219 8.075-1.243 2.574-9.78 5.768-16.665 7.028-1.58.284-3.762.603-5.839.603Z"/>
  <path fill="#212529" d="M27.752 111.494a.386.386 0 0 1-.337-.213c-.337-.852-3.319-8.288-.958-9.903 2.36-1.615 14.304-4.17 15.102-3.85a.355.355 0 0 1 .213.46.408.408 0 0 1-.443.214c-.817-.089-12.352 2.289-14.464 3.762-1.42.976-.018 6.052 1.207 9.033a.336.336 0 0 1-.178.462l-.142.035Z"/>
  <path fill="#212529" d="M37.956 96.942c-1.242 0-2.52-.302-3.283-1.296a.355.355 0 0 1 .071-.497.336.336 0 0 1 .497.071c1.526 1.988 6.034.426 6.07.408a.353.353 0 0 1 .461.213.373.373 0 0 1-.213.462c-.124.035-1.828.639-3.602.639Z"/>
  <path fill="#212529" d="M35.703 103.029a.356.356 0 0 1-.319-.537.35.35 0 0 1 .195-.155c1.792-.657 6.087-2.148 6.992-1.669h.053c.284-.124.64-1.047.817-1.845a.355.355 0 0 1 .408-.266.373.373 0 0 1 .284.425c-.071.32-.462 1.988-1.207 2.325a.726.726 0 0 1-.692-.017c-.48-.213-3.71.727-6.425 1.721l-.106.018Z"/>
  <path fill="#212529" d="M28.213 114.831a1.846 1.846 0 1 0 0-3.692 1.846 1.846 0 0 0 0 3.692Z"/>
  <path fill="#212529" d="M34.301 96.001a1.846 1.846 0 1 0 0-3.691 1.846 1.846 0 0 0 0 3.691Z"/>
  <path fill="#212529" d="M43.777 99.124a1.846 1.846 0 1 0 0-3.69 1.846 1.846 0 0 0 0 3.69Z"/>
  <path fill="#F8F9FA" d="m40.53 131.211-.373-.426a3.976 3.976 0 0 1-.621-1.437c-.409-1.97.62-4.348 2.768-5.892 2.148-1.544 5.13-1.864 6.85-.586.3.225.563.495.781.799.116.146.211.307.284.479 1.083 2.076.071 5.022-2.413 6.85-2.485 1.828-5.626 1.864-7.276.213Z"/>
  <path fill="#212529" d="M43.706 132.755c-1.33 0-2.555-.426-3.425-1.295a5.122 5.122 0 0 1-.408-.462 4.486 4.486 0 0 1-.639-1.348.429.429 0 0 1 .178-.462.422.422 0 0 1 .497-.018c1.65 1.083 4.224.817 6.264-.674 2.041-1.491 3.035-3.674 2.627-5.555l-.195-.905.763.55a3.954 3.954 0 0 1 1.171 1.402c1.172 2.254.071 5.395-2.538 7.294a7.416 7.416 0 0 1-4.294 1.473Zm-3.531-2.626c.089.142.177.301.284.443.096.138.203.269.32.391 1.561 1.544 4.49 1.437 6.814-.249 2.325-1.703 3.319-4.454 2.325-6.406-.089-.142-.16-.284-.266-.444l-.053-.053c-.018 1.881-1.136 3.904-3 5.253-1.863 1.349-4.56 1.863-6.424 1.065Z"/>
  <path fill="#212529" d="M42.287 130.555a4.866 4.866 0 0 1-2.964-.923l-.106-.089-.036-.124c-.444-2.148.728-4.668 2.91-6.265 2.184-1.597 5.378-1.97 7.277-.568l.106.089v.124c.462 2.148-.71 4.668-2.892 6.265-1.331.976-2.875 1.491-4.295 1.491Zm-2.431-1.42c1.65 1.136 4.223.887 6.318-.639 1.934-1.402 2.981-3.567 2.662-5.413-1.65-1.136-4.224-.87-6.336.657-2.112 1.526-2.964 3.549-2.644 5.395Z"/>
  <path fill="#212529" d="M49.297 128.23a.361.361 0 0 1-.32-.213l-.745-1.562a.36.36 0 0 1 .657-.302l.727 1.562a.373.373 0 0 1-.177.479l-.142.036Z"/>
  <path fill="#212529" d="M47.54 129.738a.36.36 0 0 1-.177-.056.364.364 0 0 1-.124-.139l-.586-1.047a.357.357 0 0 1 .142-.497.373.373 0 0 1 .48.142l.585 1.065a.355.355 0 0 1-.142.479.296.296 0 0 1-.178.053Z"/>
  <path fill="#212529" d="M44.434 131.619a.332.332 0 0 1-.32-.195l-.656-1.26a.358.358 0 0 1 .16-.479.359.359 0 0 1 .479.16l.639 1.26a.353.353 0 0 1-.142.479l-.16.035Z"/>
  <path fill="#212529" d="M41.577 129.064c-.284 0-.78-.125-.958-.55-.178-.426.302-1.704 1.846-3.23 1.544-1.527 2.84-2.254 3.868-2.166a1.445 1.445 0 0 1 1.03.497.373.373 0 0 1-.089.497.356.356 0 0 1-.48-.071.785.785 0 0 0-.55-.213c-.46-.035-1.49.196-3.282 1.953-1.793 1.756-1.722 2.395-1.687 2.449.036.053.249.124.302.124h.018a.373.373 0 0 1 .355.337.388.388 0 0 1-.355.373h-.018Z"/>
  <path fill="#F8F9FA" d="M97.977 130.058a6.02 6.02 0 0 0-.035-.799 4.898 4.898 0 0 0-.71-2.112c-1.438-2.449-4.81-3.957-8.537-3.549-4.028.426-7.17 2.964-7.755 5.945a5.22 5.22 0 0 0-.053 1.58c.02.264.067.526.142.78.87 3.213 4.738 5.36 9.104 4.881 4.366-.479 7.684-3.39 7.844-6.726Z"/>
  <path fill="#212529" d="M88.926 137.21c-3.975 0-7.4-2.112-8.234-5.218a5.801 5.801 0 0 1-.16-.834 5.381 5.381 0 0 1 .035-1.509.412.412 0 0 1 .337-.337.404.404 0 0 1 .426.178c1.456 2.325 4.703 3.638 8.129 3.265 3.744-.408 6.797-2.697 7.418-5.572a.39.39 0 0 1 .32-.32.432.432 0 0 1 .407.195 5.54 5.54 0 0 1 .693 2.165c.029.283.04.568.035.852-.177 3.55-3.674 6.567-8.164 7.064-.408.035-.834.071-1.242.071Zm-7.72-6.673c0 .177 0 .355.018.532.018.178.089.515.142.746.834 3.088 4.579 5.075 8.731 4.614 4.136-.444 7.366-3.195 7.525-6.389a5.522 5.522 0 0 0-.035-.746 4.346 4.346 0 0 0-.267-1.153c-1.029 2.786-4.1 4.916-7.79 5.306-3.337.373-6.585-.781-8.324-2.91Z"/>
  <path fill="#212529" d="M88.305 133.518c-3.3 0-6.282-1.437-7.666-3.798l-.071-.106.035-.142c.621-3.212 3.94-5.786 8.057-6.229 3.763-.408 7.33 1.082 8.892 3.727l.053.106v.142c-.621 3.23-3.94 5.786-8.057 6.229a9.377 9.377 0 0 1-1.243.071Zm-6.974-4.028c1.437 2.325 4.685 3.638 8.128 3.265 3.745-.408 6.78-2.68 7.4-5.537-1.437-2.342-4.685-3.638-8.128-3.265-3.744.408-6.779 2.662-7.4 5.537Z"/>
  <path fill="#212529" d="M85.217 136.216a.352.352 0 0 1-.234-.085.352.352 0 0 1-.121-.217l-.355-3.283a.336.336 0 0 1 .17-.35.34.34 0 0 1 .131-.041.362.362 0 0 1 .35.186.36.36 0 0 1 .041.134l.373 3.265a.356.356 0 0 1-.32.391h-.035Z"/>
  <path fill="#212529" d="M88.855 136.855a.357.357 0 0 1-.355-.32l-.408-3.318a.39.39 0 0 1 .32-.409.362.362 0 0 1 .261.079.349.349 0 0 1 .129.241l.408 3.336a.356.356 0 0 1-.32.391h-.035Z"/>
  <path fill="#212529" d="M94.108 135.896a.352.352 0 0 1-.355-.284l-.692-3.638a.371.371 0 0 1 .284-.426.358.358 0 0 1 .408.284l.71 3.656a.354.354 0 0 1-.284.408h-.071Z"/>
  <path fill="#212529" d="M84.046 128.904a.358.358 0 0 1-.355-.319c-.018-.071-.071-.71.55-1.367.976-1.047 3-1.526 6.034-1.384 3.035.142 4.56.621 4.88 1.526.213.568-.195 1.118-.461 1.349a.359.359 0 0 1-.466-.062.357.357 0 0 1 .005-.471s.354-.319.248-.585c-.107-.266-.586-.905-4.242-1.047-3.656-.142-4.88.532-5.448 1.135-.568.604-.39.817-.39.835a.372.372 0 0 1-.32.39h-.035Z"/>
  <path fill="#212529" d="M52.793 69.7c-1.544 0-2.396-1.03-2.786-1.74-.426.498-1.296 1.101-2.946.924-2.307-.267-2.804-2.325-2.893-3.355-.657.267-1.97.71-3.07-.177-.834-.675-1.136-1.704-.834-2.857-.923.106-2.556-.107-3.55-1.19-.993-1.082-1.047-2.111-.674-3.69-.887.177-1.899.194-2.325-.374-.426-.568-.213-1.047.284-1.845l.603.372c-.461.746-.354.994-.319 1.047.035.054.799.302 1.917.036a.533.533 0 0 1 .479.142.569.569 0 0 1 .124.497c-.408 1.473-.248 2.591.426 3.336.674.746 2.45 1.065 3.07.959a.568.568 0 0 1 .568.177.622.622 0 0 1 .124.586c-.195.657-.266 1.58.55 2.254.817.674 1.864.301 2.574-.036l.07-.035a.444.444 0 0 1 .444.035.514.514 0 0 1 .231.39c.018.64.231 2.787 2.272 3.018 1.597.177 2.254-.48 2.502-.888a.462.462 0 0 1 .444-.23.425.425 0 0 1 .39.266c.249.532.959 1.757 2.485 1.668 1.526-.089 1.846-.958 1.988-1.49a.444.444 0 0 1 .337-.338.533.533 0 0 1 .479.142c.515.586 1.899 1.846 3.567.87 1.668-.976 1.278-1.81.923-2.503a.514.514 0 0 1 .071-.55.497.497 0 0 1 .532-.106c.817.32 2.698.62 3.213.017.514-.603-.178-2.165-.444-2.59a.567.567 0 0 1-.036-.48.531.531 0 0 1 .373-.302c.515-.106 2.2-.55 2.786-1.739.32-.674.249-1.508-.213-2.467a.568.568 0 0 1 .316-.794.586.586 0 0 1 .323-.022c.675.124 2.29.337 2.467-.586l.692.142c-.213 1.047-1.313 1.473-3.052 1.172.461 1.082.497 2.04.106 2.857-.639 1.296-2.183 1.863-3.017 2.076.426.781 1.065 2.254.249 3.195-.817.94-2.591.603-3.55.337.231.745.267 2.005-1.384 2.964-1.65.958-3.46-.036-4.188-.728-.267.64-.923 1.544-2.503 1.633h-.195Z"/>
  <path fill="#F8F9FA" d="M29.083 50.959a5.414 5.414 0 0 1-2.396-.621l-.07-.036a.373.373 0 0 1-.25-.355.355.355 0 0 1 .356-.355.622.622 0 0 1 .301.107c2.307 1.189 4.437.426 6.159-2.219a.355.355 0 0 1 .593-.01.338.338 0 0 1-.008.383c-1.313 2.059-2.928 3.106-4.685 3.106Z"/>
  <path fill="#212529" d="M87.329 93.658h-.053a.372.372 0 0 1-.302-.408c.053-.248 3.745-25.946-1.828-33.027-.035-.036-2.84-3.62-4.295-4.668-1.029-.745-.993-2.2-.39-3.123s1.508-1.136 2.413-.604a.337.337 0 0 1 .125.48.355.355 0 0 1-.48.124c-.798-.462-1.295.106-1.472.373-.426.674-.444 1.703.213 2.165 1.543 1.118 4.33 4.667 4.436 4.81 5.768 7.329 2.148 32.512 1.988 33.577a.355.355 0 0 1-.355.301Z"/>
</svg>
